<svg width="99" height="21" viewBox="0 0 99 21" fill="none" xmlns="http://www.w3.org/2000/svg">
<path d="M0.392 20L0.728 0.559999H4.928L7.328 12.824L9.896 0.559999H13.952L14.288 20H11.408L11.096 6.824L8.624 20H6.152L3.56 6.728L3.296 20H0.392ZM22.5755 20.264C21.1515 20.264 20.0235 20.008 19.1915 19.496C18.3595 18.984 17.7595 18.256 17.3915 17.312C17.0395 16.352 16.8635 15.208 16.8635 13.88V6.632C16.8635 5.304 17.0395 4.168 17.3915 3.224C17.7595 2.28 18.3595 1.56 19.1915 1.064C20.0235 0.567999 21.1515 0.319999 22.5755 0.319999C24.0155 0.319999 25.1515 0.575999 25.9835 1.088C26.8315 1.584 27.4315 2.304 27.7835 3.248C28.1515 4.176 28.3355 5.304 28.3355 6.632V13.88C28.3355 15.208 28.1515 16.352 27.7835 17.312C27.4315 18.256 26.8315 18.984 25.9835 19.496C25.1515 20.008 24.0155 20.264 22.5755 20.264ZM22.5755 17.408C23.0875 17.408 23.4635 17.296 23.7035 17.072C23.9435 16.832 24.1035 16.52 24.1835 16.136C24.2635 15.736 24.3035 15.312 24.3035 14.864V5.672C24.3035 5.224 24.2635 4.808 24.1835 4.424C24.1035 4.04 23.9435 3.736 23.7035 3.512C23.4635 3.272 23.0875 3.152 22.5755 3.152C22.0955 3.152 21.7355 3.272 21.4955 3.512C21.2555 3.736 21.0955 4.04 21.0155 4.424C20.9355 4.808 20.8955 5.224 20.8955 5.672V14.864C20.8955 15.312 20.9275 15.736 20.9915 16.136C21.0715 16.52 21.2315 16.832 21.4715 17.072C21.7115 17.296 22.0795 17.408 22.5755 17.408ZM36.4516 20.264C34.9796 20.264 33.8356 20.016 33.0196 19.52C32.2036 19.008 31.6276 18.28 31.2916 17.336C30.9716 16.376 30.8116 15.216 30.8116 13.856V0.559999H34.7236V14.408C34.7236 14.888 34.7556 15.36 34.8196 15.824C34.8996 16.288 35.0596 16.664 35.2996 16.952C35.5556 17.24 35.9396 17.384 36.4516 17.384C36.9796 17.384 37.3636 17.24 37.6036 16.952C37.8596 16.664 38.0196 16.288 38.0836 15.824C38.1476 15.36 38.1796 14.888 38.1796 14.408V0.559999H42.0916V13.856C42.0916 15.216 41.9236 16.376 41.5876 17.336C41.2676 18.28 40.6996 19.008 39.8836 19.52C39.0676 20.016 37.9236 20.264 36.4516 20.264ZM44.8546 20V0.559999H47.6146L51.9346 10.688V0.559999H55.1986V20H52.5586L48.2386 9.248V20H44.8546ZM59.9677 20V3.512H56.9677V0.559999H66.9037V3.512H63.9517V20H59.9677ZM67.0274 20L70.7954 0.559999H75.1874L78.9314 20H75.2594L74.5634 15.728H71.4914L70.7474 20H67.0274ZM71.8514 13.304H74.1794L73.0034 5.456L71.8514 13.304ZM80.9495 20V0.559999H84.8855V20H80.9495ZM87.8624 20V0.559999H90.6224L94.9424 10.688V0.559999H98.2064V20H95.5664L91.2464 9.248V20H87.8624Z" fill="#FCFCFC"/>
</svg>
